<svg width="19" height="19" viewBox="0 0 19 19" fill="none" xmlns="http://www.w3.org/2000/svg">
<path d="M15.175 0H3.575C2.62736 0.00165239 1.719 0.378834 1.04892 1.04892C0.378834 1.719 0.00165239 2.62736 0 3.575V15.175C0.00165239 16.1226 0.378834 17.031 1.04892 17.7011C1.719 18.3712 2.62736 18.7483 3.575 18.75H15.175C16.1226 18.7483 17.031 18.3712 17.7011 17.7011C18.3712 17.031 18.7483 16.1226 18.75 15.175V3.575C18.7483 2.62736 18.3712 1.719 17.7011 1.04892C17.031 0.378834 16.1226 0.00165239 15.175 0ZM17.5 15.175C17.4984 15.7911 17.2529 16.3815 16.8172 16.8172C16.3815 17.2529 15.7911 17.4984 15.175 17.5H3.575C2.95888 17.4984 2.36846 17.2529 1.9328 16.8172C1.49713 16.3815 1.25165 15.7911 1.25 15.175V3.575C1.25165 2.95888 1.49713 2.36846 1.9328 1.9328C2.36846 1.49713 2.95888 1.25165 3.575 1.25H15.175C15.7911 1.25165 16.3815 1.49713 16.8172 1.9328C17.2529 2.36846 17.4984 2.95888 17.5 3.575V15.175Z" fill="white"/>
<path d="M15 10.525C14.8342 10.525 14.6753 10.5908 14.5581 10.7081C14.4408 10.8253 14.375 10.9842 14.375 11.15V13.4937L5.25625 4.375H7.6C7.76576 4.375 7.92473 4.30915 8.04194 4.19194C8.15915 4.07473 8.225 3.91576 8.225 3.75C8.225 3.58424 8.15915 3.42527 8.04194 3.30806C7.92473 3.19085 7.76576 3.125 7.6 3.125H3.55625C3.44188 3.125 3.33219 3.17044 3.25131 3.25131C3.17044 3.33219 3.125 3.44188 3.125 3.55625V7.6C3.125 7.76576 3.19085 7.92473 3.30806 8.04194C3.42527 8.15915 3.58424 8.225 3.75 8.225C3.91576 8.225 4.07473 8.15915 4.19194 8.04194C4.30915 7.92473 4.375 7.76576 4.375 7.6V5.25625L13.4937 14.375H11.15C10.9842 14.375 10.8253 14.4408 10.7081 14.5581C10.5908 14.6753 10.525 14.8342 10.525 15C10.525 15.1658 10.5908 15.3247 10.7081 15.4419C10.8253 15.5592 10.9842 15.625 11.15 15.625H15.1937C15.3081 15.625 15.4178 15.5796 15.4987 15.4987C15.5796 15.4178 15.625 15.3081 15.625 15.1937V11.15C15.625 10.9842 15.5592 10.8253 15.4419 10.7081C15.3247 10.5908 15.1658 10.525 15 10.525Z" fill="white"/>
</svg>
