<svg width="20" height="20" viewBox="0 0 20 20" fill="none" xmlns="http://www.w3.org/2000/svg">
<path d="M19.461 8.65999C19.4604 8.65953 19.4599 8.65892 19.4594 8.65846L11.301 0.500337C10.9533 0.152436 10.4909 -0.0390625 9.99912 -0.0390625C9.50733 -0.0390625 9.04499 0.152436 8.69709 0.500337L0.542929 8.65434C0.540183 8.65709 0.537283 8.65999 0.534689 8.66274C-0.179423 9.38097 -0.178202 10.5463 0.538199 11.2627C0.865501 11.5901 1.29763 11.7797 1.75982 11.7996C1.77874 11.8015 1.79766 11.8024 1.81674 11.8024H2.14175V17.8061C2.14175 18.9943 3.10855 19.961 4.29675 19.961H7.48859C7.81223 19.961 8.07453 19.6985 8.07453 19.375V14.668C8.07453 14.1259 8.51566 13.6849 9.05781 13.6849H10.9404C11.4826 13.6849 11.9236 14.1259 11.9236 14.668V19.375C11.9236 19.6985 12.1859 19.961 12.5095 19.961H15.7013C16.8897 19.961 17.8563 18.9943 17.8563 17.8061V11.8024H18.1579C18.6495 11.8024 19.1118 11.6109 19.4599 11.2628C20.1771 10.5454 20.1774 9.37792 19.461 8.65999ZM18.6312 10.4343C18.5047 10.5608 18.3365 10.6305 18.1579 10.6305H17.2704C16.9468 10.6305 16.6845 10.8928 16.6845 11.2165V17.8061C16.6845 18.3481 16.2435 18.7891 15.7013 18.7891H13.0954V14.668C13.0954 13.4798 12.1288 12.513 10.9404 12.513H9.05781C7.86945 12.513 6.90265 13.4798 6.90265 14.668V18.7891H4.29675C3.75476 18.7891 3.31363 18.3481 3.31363 17.8061V11.2165C3.31363 10.8928 3.05133 10.6305 2.72769 10.6305H1.85549C1.84634 10.6299 1.83733 10.6294 1.82803 10.6293C1.65347 10.6262 1.48974 10.557 1.36706 10.4341C1.10613 10.1732 1.10613 9.74856 1.36706 9.48748C1.36721 9.48748 1.36721 9.48732 1.36736 9.48717L1.36782 9.48671L9.52595 1.32889C9.65229 1.2024 9.82029 1.13281 9.99912 1.13281C10.1778 1.13281 10.3458 1.2024 10.4723 1.32889L18.6286 9.48503C18.6298 9.48626 18.6312 9.48748 18.6324 9.4887C18.892 9.75008 18.8915 10.1738 18.6312 10.4343Z" fill="white"/>
</svg>
