<svg width="17" height="17" viewBox="0 0 17 17" fill="none" xmlns="http://www.w3.org/2000/svg">
<path d="M8.32438 5.71833e-05C8.2148 0.00113556 8.1065 0.023888 8.00569 0.0670517C7.90488 0.110215 7.81354 0.172937 7.73689 0.251599C7.66023 0.330261 7.59977 0.423379 7.55897 0.525536C7.51817 0.627694 7.49783 0.736893 7.4991 0.846956V7.54535C7.49917 7.76754 7.58708 7.98064 7.74353 8.13772C7.89997 8.29481 8.11212 8.38302 8.33333 8.38302C8.55455 8.38302 8.7667 8.29481 8.92314 8.13772C9.07958 7.98064 9.1675 7.76754 9.16756 7.54535V0.846956C9.16886 0.735378 9.14794 0.624646 9.10602 0.521307C9.06411 0.417968 9.00205 0.324062 8.92349 0.245159C8.84494 0.166256 8.75147 0.10396 8.64858 0.0618613C8.5457 0.0197625 8.43547 -0.00124679 8.32438 5.71833e-05ZM13.1865 1.67915C13.1594 1.67836 13.1322 1.67891 13.1051 1.68078C12.9403 1.69483 12.7835 1.75782 12.6544 1.86168C12.5254 1.96554 12.43 2.10557 12.3804 2.26403C12.3309 2.42249 12.3294 2.59222 12.3761 2.75154C12.4228 2.91087 12.5157 3.05262 12.6428 3.15879C14.0865 4.39016 14.9998 6.22293 14.9998 8.28104C14.9998 11.9972 12.0289 14.9925 8.3374 14.9925C4.64588 14.9925 1.66845 11.9972 1.66845 8.28104C1.66846 6.23483 2.57018 4.41452 3.99941 3.1833C4.08268 3.11192 4.15113 3.02472 4.20086 2.92676C4.25059 2.82881 4.28062 2.72198 4.28924 2.61236C4.29785 2.50275 4.28489 2.39255 4.25109 2.28796C4.21729 2.18338 4.16331 2.08651 4.09223 2.00288C4.02115 1.91924 3.93437 1.85049 3.83684 1.80055C3.73931 1.7506 3.63294 1.72039 3.5238 1.71173C3.41467 1.70308 3.30491 1.71613 3.20078 1.75008C3.09666 1.78404 3.00021 1.83825 2.91695 1.90964C1.13283 3.44659 7.84253e-06 5.73748 0 8.28104C-7.49605e-06 12.9005 3.74357 16.6667 8.3374 16.6667C12.9312 16.6667 16.6667 12.9005 16.6667 8.28104C16.6667 5.72264 15.5226 3.42233 13.7204 1.88513C13.5722 1.75537 13.3831 1.68241 13.1865 1.67915Z" fill="white"/>
</svg>
